<svg xmlns="http://www.w3.org/2000/svg" viewBox="0 0 345.37 342.24"><g id="Layer_2" data-name="Layer 2"><g id="Layer_1-2" data-name="Layer 1"><path d="M127.73,140.18h20.79a.26.26,0,0,1,.25.25.25.25,0,0,1-.25.25H127.73a.25.25,0,0,1-.25-.25A.25.25,0,0,1,127.73,140.18Z" fill="#65829d"/><circle cx="148.99" cy="140.43" r="1.48" fill="#65829d"/><circle cx="126.91" cy="140.43" r="1.48" fill="#65829d"/><path d="M125.29,42a.36.36,0,0,1,.26-.12h24a.38.38,0,0,1,0,.76h-24a.37.37,0,0,1-.37-.38A.35.35,0,0,1,125.29,42Z" fill="#65829d"/><path d="M148.27,42.3a2.21,2.21,0,1,1,2.21,2.22A2.21,2.21,0,0,1,148.27,42.3Z" fill="#65829d"/><path d="M115.32,42.3a2.22,2.22,0,1,1,2.21,2.22A2.21,2.21,0,0,1,115.32,42.3Z" fill="#65829d"/><path d="M111.77,36.54a8.15,8.15,0,1,1,0,11.53A8.16,8.16,0,0,1,111.77,36.54Zm11,11a7.42,7.42,0,1,0-10.49,0A7.44,7.44,0,0,0,122.78,47.55Z" fill="#65829d"/><path d="M128.17,176.19h32a9,9,0,0,1,9,9v16.17a9,9,0,0,1-2.65,6.38L148.9,225.39a9,9,0,0,1-6.38,2.65H108.91a.75.75,0,0,1,0-1.5h33.61a7.48,7.48,0,0,0,5.32-2.21l17.63-17.63a7.44,7.44,0,0,0,2.21-5.32V185.21a7.53,7.53,0,0,0-7.52-7.52h-32a.75.75,0,1,1,0-1.5Z" fill="#65829d"/><path d="M125.21,173.22a3.72,3.72,0,1,1-3.72,3.72A3.72,3.72,0,0,1,125.21,173.22Zm0,5.93a2.22,2.22,0,1,0-2.22-2.21A2.21,2.21,0,0,0,125.21,179.15Z" fill="#65829d"/><path d="M106.62,224.25a3,3,0,1,1-3,3A3,3,0,0,1,106.62,224.25Zm0,4.57a1.54,1.54,0,1,0-1.53-1.53A1.54,1.54,0,0,0,106.62,228.82Z" fill="#65829d"/><path d="M176.36,138.85h10.06a.75.75,0,0,1,0,1.5H176.36a7.53,7.53,0,0,0-7.53,7.52v6.74a9,9,0,0,1-9,9H93.08a.75.75,0,1,1,0-1.5h66.73a7.52,7.52,0,0,0,7.52-7.52v-6.74A9,9,0,0,1,176.36,138.85Z" fill="#65829d"/><circle cx="192.08" cy="139.6" r="1.48" fill="#65829d"/><path d="M90.3,159.85a3,3,0,1,1-3,3A3,3,0,0,1,90.3,159.85Zm0,4.56a1.53,1.53,0,1,0-1.53-1.53A1.52,1.52,0,0,0,90.3,164.41Z" fill="#65829d"/><path d="M125.65,83.58h41.73a.21.21,0,0,1,.21.22.21.21,0,0,1-.21.21H125.65a.21.21,0,0,1-.22-.21A.22.22,0,0,1,125.65,83.58Z" fill="#65829d"/><path d="M123,80.11a3.72,3.72,0,1,1-3.72,3.72A3.73,3.73,0,0,1,123,80.11Zm0,5.94a2.22,2.22,0,1,0-2.22-2.22A2.23,2.23,0,0,0,123,86.05Z" fill="#65829d"/><path d="M172.69,77.86a6,6,0,1,1-6,6A6,6,0,0,1,172.69,77.86Zm0,10.44a4.47,4.47,0,1,0-4.46-4.47A4.47,4.47,0,0,0,172.69,88.3Z" fill="#65829d"/><circle cx="172.69" cy="83.83" r="1.48" fill="#65829d"/><path d="M187.08,28a1,1,0,0,1,.71.29,1,1,0,0,1,0,1.42L165.05,52.42a19.35,19.35,0,0,1-13.77,5.71H137.22a24.61,24.61,0,0,0-17.52,7.26L50.26,134.83a1,1,0,0,1-1.41-1.42L118.28,64a26.61,26.61,0,0,1,18.94-7.84h14.06A17.37,17.37,0,0,0,163.64,51l22.73-22.74A1,1,0,0,1,187.08,28Z" fill="#65829d"/><path d="M46.22,134.12a3.33,3.33,0,1,1,3.33,3.33A3.33,3.33,0,0,1,46.22,134.12Z" fill="#65829d"/><path d="M191.08,19a6,6,0,1,1-6,6A6,6,0,0,1,191.08,19Zm0,10.44A4.47,4.47,0,1,0,186.61,25,4.48,4.48,0,0,0,191.08,29.45Z" fill="#65829d"/><path d="M274.31,92.15h26.62a1,1,0,0,1,0,2H274.31a26.81,26.81,0,0,0-19.09,7.9L244.1,113.17a26.82,26.82,0,0,0-7.91,19.09V142.9a27,27,0,0,0,27,27h64.64a12.47,12.47,0,0,1,0,24.93H271.12a1,1,0,1,1,0-2h56.71a10.47,10.47,0,0,0,0-20.94H263.19a29,29,0,0,1-29-29V132.26a28.81,28.81,0,0,1,8.5-20.5l11.12-11.12A28.78,28.78,0,0,1,274.31,92.15Z" fill="#65829d"/><path d="M267.79,193.84a3.33,3.33,0,1,1,3.33,3.32A3.33,3.33,0,0,1,267.79,193.84Z" fill="#65829d"/><path d="M286.28,253.65a6,6,0,1,1-6,6A6,6,0,0,1,286.28,253.65Zm0,10.43a4.47,4.47,0,1,0-4.47-4.47A4.47,4.47,0,0,0,286.28,264.08Z" fill="#65829d"/><circle cx="286.28" cy="259.61" r="1.48" fill="#65829d"/><path d="M219.75,258.66h13.1a.69.69,0,0,1,0,1.37h-13.1a9,9,0,0,0-9,9v7.12a17.38,17.38,0,0,1-5.13,12.38l-50.36,50.36a.68.68,0,0,1-1,0,.7.7,0,0,1,0-1l50.36-50.36a16,16,0,0,0,4.73-11.41v-7.12A10.4,10.4,0,0,1,219.75,258.66Z" fill="#65829d"/><path d="M236.63,259.36H284.8a.25.25,0,0,1,.25.25.25.25,0,0,1-.25.25H236.63a.25.25,0,0,1-.25-.25A.25.25,0,0,1,236.63,259.36Z" fill="#65829d"/><path d="M150.94,338.91a3.33,3.33,0,1,1,3.33,3.33A3.33,3.33,0,0,1,150.94,338.91Z" fill="#65829d"/><path d="M144.74,8.33a.25.25,0,0,1-.25.25H130.41a13.21,13.21,0,0,0-13.19,13.19v6.29a.25.25,0,1,1-.5,0V21.77A13.7,13.7,0,0,1,130.41,8.08h14.08A.25.25,0,0,1,144.74,8.33Z" fill="#65829d"/><circle cx="116.97" cy="28.06" r="1.48" fill="#65829d"/><path d="M144.49,6.85A1.48,1.48,0,1,1,143,8.33,1.48,1.48,0,0,1,144.49,6.85Z" fill="#65829d"/><path d="M261.43,23h36.95A15.62,15.62,0,0,1,314,38.56V48.62a15.61,15.61,0,0,1-15.59,15.59,15,15,0,0,0-10.67,4.42l-6.27,6.27a.25.25,0,0,1-.35-.35l6.26-6.27a15.52,15.52,0,0,1,11-4.57,15.11,15.11,0,0,0,15.09-15.09V38.56a15.11,15.11,0,0,0-15.09-15.09H261.43a15,15,0,0,0-10.67,4.42l-12,12a.25.25,0,0,1-.36,0,.26.26,0,0,1,0-.35l12-12A15.48,15.48,0,0,1,261.43,23Z" fill="#65829d"/><path d="M278.22,74.73a3,3,0,1,1,3,3A3,3,0,0,1,278.22,74.73Z" fill="#65829d"/><path d="M235.51,39.75a3,3,0,1,1,3,3A3,3,0,0,1,235.51,39.75Z" fill="#65829d"/><path d="M6.37,201.6a1.21,1.21,0,0,1,.88.37l53.69,53.68a17.65,17.65,0,0,0,25,0l.14-.13a20.15,20.15,0,0,1,28.48,0l32,32a1.25,1.25,0,0,1-1.77,1.77l-32-32a17.69,17.69,0,0,0-25,0l-.14.14a20.13,20.13,0,0,1-28.48,0L5.49,203.73a1.24,1.24,0,0,1,0-1.76A1.21,1.21,0,0,1,6.37,201.6Z" fill="#65829d"/><circle cx="6.37" cy="202.85" r="3.9" transform="translate(-194.88 176.64) rotate(-80.78)" fill="#65829d"/><circle cx="149.47" cy="292.67" r="5.22" fill="none" stroke="#65829d" stroke-linecap="round" stroke-linejoin="round" stroke-width="1.55"/><path d="M97.61,215.52h18a6.84,6.84,0,0,1,6.3,4.16.26.26,0,0,1-.13.33.26.26,0,0,1-.33-.13,6.33,6.33,0,0,0-5.84-3.86h-18a6.33,6.33,0,0,0-5.83,3.86.27.27,0,0,1-.33.13.25.25,0,0,1-.13-.33A6.82,6.82,0,0,1,97.61,215.52Z" fill="#65829d"/><circle cx="121.7" cy="219.78" r="1.48" fill="#65829d"/><circle cx="91.55" cy="219.78" r="1.48" fill="#65829d"/><path d="M192.85,119.68a.27.27,0,0,1-.18.07.25.25,0,0,1-.25-.25V108.1a4.32,4.32,0,0,0-1.26-3.06l-8.46-8.46a.25.25,0,0,1,0-.36.26.26,0,0,1,.35,0l8.46,8.47a4.79,4.79,0,0,1,1.41,3.41v11.4A.24.24,0,0,1,192.85,119.68Z" fill="#65829d"/><path d="M193.72,118.45a1.48,1.48,0,1,1-2.09,0A1.48,1.48,0,0,1,193.72,118.45Z" fill="#65829d"/><circle cx="182.87" cy="96.4" r="1.48" fill="#65829d"/><path d="M106.15,140.18h9.09a.25.25,0,0,1,.25.25.25.25,0,0,1-.25.25h-9.09a.25.25,0,0,1-.25-.25A.25.25,0,0,1,106.15,140.18Z" fill="#65829d"/><path d="M121.7,113.37h27a8.94,8.94,0,0,1,6.38,2.65l16.64,16.63a7.47,7.47,0,0,0,5.31,2.2h9.41a.75.75,0,0,1,0,1.5H177a9,9,0,0,1-6.37-2.64L154,117.08a7.44,7.44,0,0,0-5.32-2.21h-27a.75.75,0,1,1,0-1.5Z" fill="#65829d"/><path d="M115.24,140.43a1.49,1.49,0,1,1,1.49,1.49A1.49,1.49,0,0,1,115.24,140.43Z" fill="#65829d"/><path d="M190.6,135.6a1.49,1.49,0,0,1,3,0,1.49,1.49,0,1,1-3,0Z" fill="#65829d"/><path d="M106.32,113.77h10a.25.25,0,0,1,.25.25.26.26,0,0,1-.25.25h-10a.25.25,0,0,1-.25-.25A.25.25,0,0,1,106.32,113.77Z" fill="#65829d"/><path d="M106.06,113.27h.26a.75.75,0,0,1,0,1.5h-.26a7.47,7.47,0,0,0-5.31,2.2l-9.88,9.87a7.52,7.52,0,0,0,5.32,12.84h10a.75.75,0,0,1,0,1.5h-10a9,9,0,0,1-6.38-15.4l9.88-9.87A8.91,8.91,0,0,1,106.06,113.27Z" fill="#65829d"/><path d="M195.36,170.88a1.49,1.49,0,1,1,1.49,1.48A1.49,1.49,0,0,1,195.36,170.88Z" fill="#65829d"/><path d="M196.85,170.63h7.56a.25.25,0,0,1,0,.5h-7.56a.25.25,0,0,1,0-.5Z" fill="#65829d"/><path d="M204.41,170.13h12.2a9,9,0,0,1,6.38,2.64l21.73,21.73a9,9,0,0,1,2.64,6.38V222a9,9,0,0,1-9,9H206.21a.75.75,0,0,1,0-1.5h32.13a7.53,7.53,0,0,0,7.52-7.53V200.88a7.47,7.47,0,0,0-2.2-5.32l-21.73-21.73a7.47,7.47,0,0,0-5.32-2.2h-12.2a.75.75,0,1,1,0-1.5Z" fill="#65829d"/><path d="M202.74,226.57a3.72,3.72,0,1,1-3.71,3.72A3.73,3.73,0,0,1,202.74,226.57Zm0,5.93a2.22,2.22,0,1,0-2.21-2.21A2.21,2.21,0,0,0,202.74,232.5Z" fill="#65829d"/><path d="M335.89,154.35a1.49,1.49,0,1,1-1.49,1.49A1.49,1.49,0,0,1,335.89,154.35Z" fill="#65829d"/><circle cx="340.38" cy="155.84" r="1.48" fill="#65829d"/><path d="M307.12,155.59H334.4a.25.25,0,0,1,.25.25.25.25,0,0,1-.25.25H307.12a.25.25,0,0,1-.25-.25A.25.25,0,0,1,307.12,155.59Z" fill="#65829d"/><path d="M270.76,108h36.36a.75.75,0,0,1,0,1.5H270.76a3.63,3.63,0,0,0-2.6,1.08l-8.21,8.2a3.68,3.68,0,0,0-1.07,2.6v12.36a3.67,3.67,0,0,0,3.67,3.67h40.14a5.18,5.18,0,0,1,0,10.35H262.55a3.69,3.69,0,0,0,0,7.38h44.57a.75.75,0,0,1,0,1.5H262.55a5.19,5.19,0,0,1,0-10.38h40.14a3.68,3.68,0,1,0,0-7.35H262.55a5.18,5.18,0,0,1-5.17-5.17V121.33a5.13,5.13,0,0,1,1.51-3.66l8.21-8.2A5.14,5.14,0,0,1,270.76,108Z" fill="#65829d"/><path d="M243,0H308.6a1.25,1.25,0,0,1,0,2.5H243a22.47,22.47,0,0,0-16,6.61L190.94,45.16a19.06,19.06,0,0,0,0,27l5,5a19,19,0,0,0,26.94,0L255.93,44a1.24,1.24,0,0,1,1.76,1.76L224.61,78.84a21.56,21.56,0,0,1-30.48,0l-5-5a21.56,21.56,0,0,1,0-30.48L225.23,7.34A24.92,24.92,0,0,1,243,0Z" fill="#65829d"/><path d="M308.6,1h6.93a28.88,28.88,0,0,1,28.84,28.84V60.51a.25.25,0,0,1-.5,0V29.84A28.37,28.37,0,0,0,315.53,1.5H308.6a.25.25,0,0,1,0-.5Z" fill="#65829d"/><path d="M344.12,84.11a.25.25,0,0,1,.25.25V98.05a15.61,15.61,0,0,1-4.6,11.1l-15.91,15.91a.25.25,0,0,1-.36,0,.24.24,0,0,1,0-.35l15.91-15.91a15.07,15.07,0,0,0,4.46-10.75V84.36A.25.25,0,0,1,344.12,84.11Z" fill="#65829d"/><path d="M321.61,123.29a3.72,3.72,0,1,1-3.72,3.72A3.73,3.73,0,0,1,321.61,123.29Zm0,5.94a2.22,2.22,0,1,0-2.22-2.22A2.23,2.23,0,0,0,321.61,129.23Z" fill="#65829d"/><path d="M344.12,59.26a1.25,1.25,0,0,1,1.25,1.25V84.36a1.25,1.25,0,1,1-2.5,0V60.51A1.25,1.25,0,0,1,344.12,59.26Z" fill="#65829d"/><path d="M277.74,43.89a.23.23,0,0,1,.17.08.24.24,0,0,1,0,.35L265.75,56.49a.25.25,0,0,1-.36,0,.27.27,0,0,1,0-.36L277.56,44A.25.25,0,0,1,277.74,43.89Z" fill="#65829d"/><path d="M281.58,34.66a6,6,0,1,1-6,6A6,6,0,0,1,281.58,34.66Zm0,10.43a4.47,4.47,0,1,0-4.47-4.46A4.47,4.47,0,0,0,281.58,45.09Z" fill="#65829d"/><path d="M265.57,55.56a.74.74,0,0,1,.53.22.75.75,0,0,1,0,1.06L226.05,96.89A20.58,20.58,0,0,0,220,111.55v42.57a9,9,0,0,1-9,9H193a7.53,7.53,0,0,0-7.52,7.53v56.39a.75.75,0,0,1-1.5,0V170.67a9,9,0,0,1,9-9h18a7.53,7.53,0,0,0,7.52-7.52V111.55A22.08,22.08,0,0,1,225,95.83l40.05-40A.74.74,0,0,1,265.57,55.56Z" fill="#65829d"/><path d="M184.74,226.31a3,3,0,1,1-3,3A3,3,0,0,1,184.74,226.31Zm0,4.57a1.54,1.54,0,1,0-1.53-1.54A1.53,1.53,0,0,0,184.74,230.88Z" fill="#65829d"/><path d="M135.73,190.62a6,6,0,1,1-6,6A6,6,0,0,1,135.73,190.62Zm0,10.43a4.47,4.47,0,1,0-4.47-4.47A4.47,4.47,0,0,0,135.73,201.05Z" fill="#65829d"/><path d="M39.27,196.52a.12.12,0,0,1,.09,0,.11.11,0,0,1,0,.17l-8.29,8.33a.15.15,0,0,1-.18,0,.13.13,0,0,1,0-.18l8.29-8.32A.11.11,0,0,1,39.27,196.52Z" fill="#65829d"/><path d="M29.13,203.83a3,3,0,1,1-3,3A3,3,0,0,1,29.13,203.83Zm0,5.27a2.26,2.26,0,1,0-2.26-2.26A2.26,2.26,0,0,0,29.13,209.1Z" fill="#65829d"/><path d="M59,181.52H81.18a12.85,12.85,0,0,1,9.15,3.79l7.34,7.34a11.84,11.84,0,0,0,8.43,3.49h24.13a.51.51,0,0,1,0,1H106.1A12.88,12.88,0,0,1,97,193.36L89.61,186a11.84,11.84,0,0,0-8.43-3.49H59A11.85,11.85,0,0,0,50.61,186l-11,11a.51.51,0,0,1-.72,0,.51.51,0,0,1,0-.71l11-11A12.81,12.81,0,0,1,59,181.52Z" fill="#65829d"/><path d="M269.9,238.62a1.74,1.74,0,1,1-1.73,1.73A1.73,1.73,0,0,1,269.9,238.62Zm0,3a1.24,1.24,0,1,0-1.23-1.24A1.24,1.24,0,0,0,269.9,241.59Z" fill="#65829d"/><path d="M265.41,241.84a1.49,1.49,0,1,1,1.48-1.49A1.49,1.49,0,0,1,265.41,241.84Z" fill="#65829d"/><path d="M221.51,278a.24.24,0,0,1,.18.07,15.11,15.11,0,0,0,10.75,4.45h13.69a.26.26,0,0,1,.25.25.25.25,0,0,1-.25.25H232.44a15.61,15.61,0,0,1-11.11-4.6.26.26,0,0,1,0-.35A.26.26,0,0,1,221.51,278Z" fill="#65829d"/><path d="M274.36,240.1h20.38a11.31,11.31,0,0,1,8.06,3.35l10.84,10.83a11.36,11.36,0,0,1,3.34,8.07v9.27A11.42,11.42,0,0,1,305.57,283H270a.25.25,0,0,1-.25-.25.25.25,0,0,1,.25-.25h35.59a10.92,10.92,0,0,0,10.91-10.91v-9.27a10.84,10.84,0,0,0-3.2-7.72L302.45,243.8a10.84,10.84,0,0,0-7.71-3.2H274.36a.25.25,0,0,1-.25-.25A.26.26,0,0,1,274.36,240.1Z" fill="#65829d"/><path d="M220.1,273.43a3,3,0,1,1-3,3A3,3,0,0,1,220.1,273.43Zm0,4.56a1.53,1.53,0,1,0-1.53-1.53A1.53,1.53,0,0,0,220.1,278Z" fill="#65829d"/><path d="M246.13,281.53H270a1.25,1.25,0,0,1,0,2.5H246.13a1.25,1.25,0,0,1,0-2.5Z" fill="#65829d"/><path d="M94.14,14a.15.15,0,0,1,.11,0,.17.17,0,0,1,0,.21l-8.39,8.39a15.88,15.88,0,0,0,0,22.44l6.07,6.07a16.16,16.16,0,0,1,0,22.87L27.88,138.08a.15.15,0,1,1-.21-.21L91.72,73.82a15.87,15.87,0,0,0,0-22.45l-6.07-6.06a16.18,16.18,0,0,1,0-22.88L94,14.05A.15.15,0,0,1,94.14,14Z" fill="#65829d"/><circle cx="27.78" cy="137.97" r="0.89" fill="#65829d"/><circle cx="94.14" cy="14.16" r="0.89" fill="#65829d"/><path d="M265.53,213h9.09a.25.25,0,0,1,0,.5h-9.09a.25.25,0,0,1,0-.5Z" fill="#65829d"/><path d="M224.46,305.57a.25.25,0,0,1,.18.08l31.17,31.16a6.1,6.1,0,0,0,4.34,1.8h13c4.78.08,6.16-5.15,6.16-8.54v-.74a.25.25,0,0,1,.5,0v.74c0,3.67-1.27,9.12-6.66,9h-13a6.6,6.6,0,0,1-4.7-1.95L224.29,306a.24.24,0,0,1,0-.35A.25.25,0,0,1,224.46,305.57Z" fill="#65829d"/><circle cx="224.46" cy="305.82" r="3.9" transform="translate(-150.51 248.29) rotate(-45)" fill="#65829d"/><path d="M260.31,207.3a6,6,0,1,1-6,6A6,6,0,0,1,260.31,207.3Zm0,10.43a4.47,4.47,0,1,0-4.47-4.47A4.47,4.47,0,0,0,260.31,217.73Z" fill="#65829d"/><path d="M274.62,212H297a18,18,0,0,1,12.85,5.33l23.83,23.82A18.06,18.06,0,0,1,339,254v30a18.19,18.19,0,0,1-18.17,18.17H296.5a15.69,15.69,0,0,0-15.67,15.67v10.33a1.25,1.25,0,0,1-2.5,0V317.89a18.19,18.19,0,0,1,18.17-18.17h24.35a15.69,15.69,0,0,0,15.67-15.67V254a15.58,15.58,0,0,0-4.59-11.08L308.1,219.1A15.56,15.56,0,0,0,297,214.51h-22.4a1.25,1.25,0,0,1,0-2.5Z" fill="#65829d"/><path d="M6.42,51.79a1.74,1.74,0,1,1,1.73,1.74A1.74,1.74,0,0,1,6.42,51.79Zm3,0A1.24,1.24,0,1,0,8.15,53,1.24,1.24,0,0,0,9.39,51.79Z" fill="#65829d"/><path d="M9.64,56.29A1.49,1.49,0,1,1,8.15,54.8,1.49,1.49,0,0,1,9.64,56.29Z" fill="#65829d"/><path d="M45.81,100.18a.23.23,0,0,1,.07-.17,15.11,15.11,0,0,0,4.45-10.76V75.57a.25.25,0,0,1,.5,0V89.25a15.6,15.6,0,0,1-4.6,11.11.25.25,0,0,1-.42-.18Z" fill="#65829d"/><path d="M7.9,47.33V27a11.33,11.33,0,0,1,3.35-8.07L22.08,8.06a11.33,11.33,0,0,1,8.07-3.35h9.27A11.43,11.43,0,0,1,50.83,16.13V51.72a.25.25,0,0,1-.5,0V16.13A10.93,10.93,0,0,0,39.42,5.21H30.15a10.85,10.85,0,0,0-7.72,3.2L11.6,19.24A10.88,10.88,0,0,0,8.4,27V47.33a.25.25,0,0,1-.25.25A.25.25,0,0,1,7.9,47.33Z" fill="#65829d"/><path d="M41.23,101.59a3,3,0,1,1,3,3A3,3,0,0,1,41.23,101.59Zm4.56,0a1.53,1.53,0,1,0-1.53,1.53A1.53,1.53,0,0,0,45.79,101.59Z" fill="#65829d"/><path d="M49.33,75.57V51.72a1.25,1.25,0,0,1,2.5,0V75.57a1.25,1.25,0,0,1-2.5,0Z" fill="#65829d"/><path d="M37.28,72.65v-18a6.84,6.84,0,0,1,4.16-6.3.24.24,0,0,1,.33.13.25.25,0,0,1-.13.33,6.33,6.33,0,0,0-3.86,5.84v18a6.33,6.33,0,0,0,3.86,5.84.25.25,0,0,1-.2.46A6.84,6.84,0,0,1,37.28,72.65Z" fill="#65829d"/><circle cx="41.54" cy="48.57" r="1.48" fill="#65829d"/><circle cx="41.54" cy="78.72" r="1.48" fill="#65829d"/><path d="M135.27,293.78a1.11,1.11,0,1,0-1.11,1.12A1.11,1.11,0,0,0,135.27,293.78Z" fill="#65829d"/><path d="M134.16,293.59h-5.68a.19.19,0,0,0-.18.19.18.18,0,0,0,.18.19h5.68a.19.19,0,0,0,.19-.19A.2.2,0,0,0,134.16,293.59Z" fill="#65829d"/><path d="M128.48,293.22h-9.16a6.72,6.72,0,0,0-4.79,2l-16.3,16.31a6.72,6.72,0,0,0-2,4.78v15.87a6.78,6.78,0,0,0,6.77,6.77h24.11a.56.56,0,0,0,.56-.56.57.57,0,0,0-.56-.57H103a5.65,5.65,0,0,1-5.65-5.64V316.29a5.61,5.61,0,0,1,1.66-4l16.3-16.3a5.59,5.59,0,0,1,4-1.65h9.16a.57.57,0,0,0,.57-.57A.56.56,0,0,0,128.48,293.22Z" fill="#65829d"/><path d="M132.52,338.37a2.79,2.79,0,1,1-2.79-2.79A2.8,2.8,0,0,1,132.52,338.37Zm-1.12,0a1.67,1.67,0,1,0-1.67,1.66A1.67,1.67,0,0,0,131.4,338.37Z" fill="#65829d"/><path d="M101.76,283.66l-29.51,29.5a.21.21,0,0,1-.3-.3l29.5-29.51a.22.22,0,1,1,.31.31Z" fill="#65829d"/><path d="M106.06,284.26a3.72,3.72,0,1,1,0-5.25A3.72,3.72,0,0,1,106.06,284.26Zm-4.2-4.19a2.21,2.21,0,1,0,3.13,0A2.22,2.22,0,0,0,101.86,280.07Z" fill="#65829d"/><path d="M72.54,321a6,6,0,1,1,0-8.43A6,6,0,0,1,72.54,321Zm-7.38-7.37a4.47,4.47,0,1,0,6.32,0A4.47,4.47,0,0,0,65.16,313.59Z" fill="#65829d"/><circle cx="68.32" cy="316.74" r="1.48" fill="#65829d"/><path d="M4.75,311V274.05a15.6,15.6,0,0,1,15.59-15.59H30.39A15.61,15.61,0,0,1,46,274.05a15,15,0,0,0,4.42,10.67L56.67,291a.25.25,0,0,1-.35.35l-6.27-6.27a15.49,15.49,0,0,1-4.56-11A15.11,15.11,0,0,0,30.39,259h-10A15.11,15.11,0,0,0,5.25,274.05V311a15,15,0,0,0,4.42,10.67l12,12a.26.26,0,0,1,0,.35.25.25,0,0,1-.36,0l-12-12A15.49,15.49,0,0,1,4.75,311Z" fill="#65829d"/><path d="M56.5,294.2a3,3,0,1,1,3-3A3,3,0,0,1,56.5,294.2Z" fill="#65829d"/><path d="M21.52,336.91a3,3,0,1,1,3-3A3,3,0,0,1,21.52,336.91Z" fill="#65829d"/><path d="M31.5,298.84a.35.35,0,0,1,.27.11l16.94,16.93a.38.38,0,0,1-.54.54L31.24,299.48a.37.37,0,0,1,0-.53A.34.34,0,0,1,31.5,298.84Z" fill="#65829d"/><path d="M47.56,315.27a2.21,2.21,0,1,1,0,3.13A2.22,2.22,0,0,1,47.56,315.27Z" fill="#65829d"/><path d="M24.27,292a2.21,2.21,0,1,1,0,3.13A2.22,2.22,0,0,1,24.27,292Z" fill="#65829d"/><path d="M25.83,285.39a8.16,8.16,0,1,1-8.15,8.16A8.17,8.17,0,0,1,25.83,285.39Zm0,15.57a7.42,7.42,0,1,0-7.41-7.41A7.43,7.43,0,0,0,25.83,301Z" fill="#65829d"/><path d="M49.31,333.63H70.1a.25.25,0,0,1,.25.25.25.25,0,0,1-.25.25H49.31a.26.26,0,0,1-.25-.25A.25.25,0,0,1,49.31,333.63Z" fill="#65829d"/><circle cx="70.58" cy="333.88" r="1.48" fill="#65829d"/><circle cx="48.5" cy="333.88" r="1.48" fill="#65829d"/><path d="M56.59,151.79a6.2,6.2,0,1,1-6.2,6.2A6.21,6.21,0,0,1,56.59,151.79Zm0,10.84A4.65,4.65,0,1,0,52,158,4.64,4.64,0,0,0,56.59,162.63Z" fill="#65829d"/><circle cx="56.59" cy="158.33" r="1.54" fill="#65829d"/><path d="M45.54,157.24H51.4a.31.31,0,1,1,0,.62H45.54a4,4,0,0,0-4,4v3.19a7.79,7.79,0,0,1-2.3,5.54L16.66,193.17a.3.3,0,0,1-.43,0,.31.31,0,0,1,0-.44l22.54-22.54a7.17,7.17,0,0,0,2.12-5.11v-3.19A4.65,4.65,0,0,1,45.54,157.24Z" fill="#65829d"/><path d="M14.74,193.17a1.49,1.49,0,1,1,1.49,1.49A1.48,1.48,0,0,1,14.74,193.17Z" fill="#65829d"/><path d="M7.89,131a.36.36,0,0,1-.12-.26v-24a.38.38,0,1,1,.76,0v24a.38.38,0,0,1-.38.38A.36.36,0,0,1,7.89,131Z" fill="#65829d"/><path d="M8.15,108.06a2.21,2.21,0,1,1,2.22-2.21A2.21,2.21,0,0,1,8.15,108.06Z" fill="#65829d"/><path d="M8.15,141a2.22,2.22,0,1,1,2.22-2.21A2.21,2.21,0,0,1,8.15,141Z" fill="#65829d"/><path d="M2.39,144.56a8.15,8.15,0,1,1,11.53,0A8.14,8.14,0,0,1,2.39,144.56Zm11-11a7.41,7.41,0,1,0,0,10.48A7.42,7.42,0,0,0,13.39,133.56Z" fill="#65829d"/></g></g></svg>