<svg xmlns="http://www.w3.org/2000/svg" viewBox="0 0 128.4 104.29" width="20" height="20"><g id="bbe58e53-1231-4062-83b7-4d15cdfd2e2c" data-name="Layer 2"><g id="fceabb60-d5bc-4d07-8841-9d0997fae890" data-name="Layer 1"><path fill="#ffffff" d="M128.4,12.38a52.47,52.47,0,0,1-15.16,4.08A25.53,25.53,0,0,0,124.81,2a51.67,51.67,0,0,1-16.7,6.35A26.37,26.37,0,0,0,70.27,7.7a25.33,25.33,0,0,0-7.7,18.61,28.8,28.8,0,0,0,.65,6A73.26,73.26,0,0,1,33,24.24,74.62,74.62,0,0,1,9,4.81,25.76,25.76,0,0,0,5.38,18.08,25.74,25.74,0,0,0,8.55,30.63,26.24,26.24,0,0,0,17.11,40a26.15,26.15,0,0,1-11.9-3.34V37a25.45,25.45,0,0,0,6,16.74,25.87,25.87,0,0,0,15.11,9.08,27.1,27.1,0,0,1-6.92.9,33.47,33.47,0,0,1-5-.4A26.39,26.39,0,0,0,39,81.56,51.53,51.53,0,0,1,6.35,92.8,58.14,58.14,0,0,1,0,92.48a73.11,73.11,0,0,0,40.41,11.81,77,77,0,0,0,26.32-4.44,66.93,66.93,0,0,0,21-11.9,79.49,79.49,0,0,0,15-17.15,76.55,76.55,0,0,0,9.41-20.24,74.91,74.91,0,0,0,3.09-21.14c0-1.52,0-2.66-.08-3.43a54.88,54.88,0,0,0,13.2-13.6Z"/></g></g></svg>
