<svg xmlns="http://www.w3.org/2000/svg" viewBox="0 0 18.83 18.83" width="25" height="25"><title>Search</title><g id="e526e986-787f-4a0f-8d31-6bec93859476" data-name="Layer 2"><g id="adde695b-675f-41c4-9b06-1ba98726597e" data-name="Layer 1"><path d="M18.41,16.36l-3.88-3.88A7.7,7.7,0,0,0,15.93,8a7.85,7.85,0,0,0-.63-3.1A8,8,0,0,0,8,0,7.93,7.93,0,0,0,.63,4.87,7.85,7.85,0,0,0,0,8a7.76,7.76,0,0,0,.63,3.09A8,8,0,0,0,8,15.93a7.77,7.77,0,0,0,4.51-1.4l3.88,3.87a1.33,1.33,0,0,0,1,.43,1.45,1.45,0,0,0,1-2.47Zm-6.86-4.81A4.89,4.89,0,0,1,8,13a4.88,4.88,0,0,1-3.58-1.49A4.86,4.86,0,0,1,2.9,8,4.84,4.84,0,0,1,4.39,4.39,4.84,4.84,0,0,1,8,2.9a4.86,4.86,0,0,1,3.58,1.49A4.88,4.88,0,0,1,13,8a4.89,4.89,0,0,1-1.49,3.58Z" style="fill:#37434B"/></g></g></svg>
