<svg xmlns="http://www.w3.org/2000/svg" viewBox="0 0 503.84 503.84" width="20" height="20"><g id="Layer_2" data-name="Layer 2"><g id="Layer_1-2" data-name="Layer 1"><path fill="#ffffff" d="M251.92,45.39c67.27,0,75.23.26,101.8,1.47,24.56,1.12,37.9,5.23,46.78,8.68a78,78,0,0,1,29,18.84,78.13,78.13,0,0,1,18.84,29c3.45,8.87,7.55,22.21,8.67,46.77,1.22,26.57,1.47,34.54,1.47,101.8s-.25,75.24-1.47,101.8c-1.12,24.57-5.22,37.9-8.67,46.78a83.43,83.43,0,0,1-47.81,47.81c-8.88,3.45-22.22,7.56-46.78,8.68-26.56,1.21-34.53,1.47-101.8,1.47s-75.24-.26-101.8-1.47c-24.56-1.12-37.9-5.23-46.78-8.68a78,78,0,0,1-29-18.84,78.11,78.11,0,0,1-18.85-29c-3.45-8.88-7.55-22.21-8.67-46.78-1.21-26.56-1.47-34.53-1.47-101.8s.26-75.23,1.47-101.8c1.12-24.56,5.22-37.9,8.67-46.77a78,78,0,0,1,18.85-29,78.07,78.07,0,0,1,29-18.85c8.88-3.45,22.22-7.55,46.78-8.67,26.57-1.21,34.53-1.47,101.8-1.47m0-45.39c-68.41,0-77,.29-103.86,1.52S102.93,7,86.91,13.23A123.43,123.43,0,0,0,42.29,42.28,123.57,123.57,0,0,0,13.22,86.9c-6.22,16-10.48,34.34-11.7,61.16S0,183.5,0,251.92s.29,77,1.52,103.87S7,400.91,13.23,416.94a123.54,123.54,0,0,0,29.06,44.62,123.59,123.59,0,0,0,44.62,29.06c16,6.22,34.34,10.48,61.15,11.7s35.45,1.52,103.86,1.52,77-.29,103.87-1.52,45.13-5.48,61.15-11.7a128.83,128.83,0,0,0,73.68-73.68c6.23-16,10.48-34.34,11.71-61.15s1.51-35.45,1.51-103.87-.29-77-1.51-103.86-5.48-45.13-11.71-61.16a123.54,123.54,0,0,0-29.06-44.62,123.59,123.59,0,0,0-44.62-29.06C400.91,7,382.6,2.74,355.79,1.52S320.34,0,251.92,0Z"/><path fill="#ffffff" d="M251.92,122.56A129.37,129.37,0,1,0,381.29,251.92h0A129.36,129.36,0,0,0,251.92,122.56Zm0,213.33a84,84,0,1,1,84-84A84,84,0,0,1,251.92,335.89Z"/><circle fill="#ffffff" cx="386.4" cy="117.45" r="30.23"/></g></g></svg>
