<svg xmlns="http://www.w3.org/2000/svg" viewBox="0 0 87.02 214.88"><g id="Layer_2" data-name="Layer 2"><g id="Layer_1-2" data-name="Layer 1"><path d="M59.76,29.25a21.15,21.15,0,1,0-19.57,13A21.14,21.14,0,0,0,59.76,29.25Z" fill="#60bfdb"/><path d="M15.92,56.73A25.83,25.83,0,0,0,0,80.6v37.79a12.77,12.77,0,0,0,12.79,12.79h.46l2.39,75h0a8.79,8.79,0,0,0,8.93,8.52H38.16V54.8H22.35a11.29,11.29,0,0,0-6.42,1.93Z" fill="#60bfdb"/><path d="M86.73,120.65,73.86,70.26A20.27,20.27,0,0,0,54.17,54.8H44.32V214.88H54.6a5.41,5.41,0,0,0,5.4-5.1l2-31.9H77.84a4.52,4.52,0,0,0,3.44-1.69,4.44,4.44,0,0,0,.88-3.72l-6.09-39,3.4-.81A10,10,0,0,0,86.73,120.65Z" fill="#60bfdb"/></g></g></svg>