<svg xmlns="http://www.w3.org/2000/svg" viewBox="0 0 211.15 195.81"><g id="Layer_2" data-name="Layer 2"><g id="Layer_1-2" data-name="Layer 1"><path d="M203,18.82V11a6,6,0,0,0-6-6h-36.6a8.75,8.75,0,0,0-7.2-3.79H130.8A8.76,8.76,0,0,0,122,10V35H81.29a40.65,40.65,0,0,0-8.16-19.13h0a3,3,0,0,0-.38-.83,2.82,2.82,0,0,0-1.06-.92A40.85,40.85,0,1,0,34.91,81.28l-.15,35.24h1.89a87.37,87.37,0,0,0-21.12,3.2c-8.63,2.62-13,6.39-13,11.19a7.1,7.1,0,0,0,.17,1.53,3.66,3.66,0,0,0-.17,1.05v22.63a7.48,7.48,0,0,0,.27,2,3.78,3.78,0,0,0-.27,1.39v21.85c0,4.8,4.39,8.57,13,11.19h0c7,2.13,16.26,3.3,26.05,3.3s19-1.17,26.05-3.3c8.63-2.62,13-6.39,13-11.19V163.9h57.66a39.3,39.3,0,0,0-11.2,27.49c0,1.57,1.52,3.16,3.84,3.16a3.4,3.4,0,0,0,3.7-3.16c0-18.63,13.3-31.94,31.94-31.94s31.94,13.3,31.94,31.94a3.7,3.7,0,0,0,3.78,3.47,3.5,3.5,0,0,0,3.76-3.47,39.58,39.58,0,0,0-27-37.44,23.17,23.17,0,0,0-12.46-42.7h-.32V73.88h36.11a8.76,8.76,0,0,0,8.76-8.73V27.49A8.74,8.74,0,0,0,203,18.82ZM75.68,37.91H64.89a65.51,65.51,0,0,0-2.07-14.14,43.35,43.35,0,0,0,6.59-3.05,34.74,34.74,0,0,1,6.28,17.19ZM62.88,57.69a65.92,65.92,0,0,0,2-13.89H75.68a34.81,34.81,0,0,1-6.13,17h0a44.32,44.32,0,0,0-6.66-3.1Zm2.84,7.71a35.3,35.3,0,0,1-9.17,6.68,41.07,41.07,0,0,0,4.54-8.77,37,37,0,0,1,4.62,2.1Zm-.18-49.28a40.85,40.85,0,0,1-4.53,2,41.25,41.25,0,0,0-4.45-8.53A35,35,0,0,1,65.54,16.12ZM43.81,6.38c4.63,1.52,8.73,6.53,11.51,13.52a60.72,60.72,0,0,1-11.51,1.6Zm0,21a66,66,0,0,0,13.33-1.89A60.56,60.56,0,0,1,59,37.9H43.81ZM59,43.8a60.46,60.46,0,0,1-1.77,12.13A65.39,65.39,0,0,0,43.81,54V43.8ZM43.81,75.32V59.92a61.08,61.08,0,0,1,11.61,1.62c-2.79,7.12-6.93,12.24-11.61,13.78ZM37.91,43.8V54A66.19,66.19,0,0,0,24.5,55.93,59.65,59.65,0,0,1,22.73,43.8ZM22.73,37.9a60,60,0,0,1,1.85-12.4,66.21,66.21,0,0,0,13.33,1.89v10.5H22.73ZM37.91,6.37V21.49a59.94,59.94,0,0,1-11.5-1.6C29.19,12.9,33.29,7.89,37.91,6.37ZM25.16,9.62a40.75,40.75,0,0,0-4.45,8.53,42,42,0,0,1-4.54-2,35.08,35.08,0,0,1,9-6.49ZM12.31,20.7h0a44.32,44.32,0,0,0,6.59,3,65.51,65.51,0,0,0-2.07,14.15H6A34.74,34.74,0,0,1,12.32,20.7Zm-.14,40.08A34.72,34.72,0,0,1,6,43.79H16.83a65.28,65.28,0,0,0,2,13.89,44.39,44.39,0,0,0-6.66,3.1ZM16,65.38a38.28,38.28,0,0,1,4.62-2.09,41.05,41.05,0,0,0,4.54,8.77A35.24,35.24,0,0,1,16,65.38ZM26.3,61.54a61.07,61.07,0,0,1,11.61-1.63v15.4C33.22,73.77,29.08,68.66,26.3,61.54ZM41.59,124c20.12,0,30.49,4.86,31.48,6.93-1,2.07-11.36,6.93-31.48,6.93S11.1,133,10.11,130.88C11.1,128.81,21.47,124,41.59,124ZM10.08,140a38.72,38.72,0,0,0,5.45,2.08c7,2.13,16.26,3.3,26.05,3.3s19-1.17,26.05-3.3A38.25,38.25,0,0,0,73.08,140v16c-.74,2-11.1,7-31.51,7s-30.84-5-31.51-6.93V140Zm31.51,48.23c-20.46,0-30.84-5-31.51-6.93V165.2a38.72,38.72,0,0,0,5.45,2.08c7,2.13,16.26,3.3,26.05,3.3s19-1.17,26.05-3.3a38.4,38.4,0,0,0,5.46-2.08v16c-.67,2-11.05,7-31.51,7Zm125-70a16.21,16.21,0,1,1-16.21,16.21A16.23,16.23,0,0,1,166.59,118.18Zm-10-4.69a23.16,23.16,0,0,0-2.47,40.43l-.8.29H80.66V133.46a3.66,3.66,0,0,0-.17-1.05,7.71,7.71,0,0,0,.17-1.53c0-4.8-4.39-8.57-13-11.19a89.93,89.93,0,0,0-23.22-3.26l.15-34.92a40.91,40.91,0,0,0,37-36.9H122V65.12a8.76,8.76,0,0,0,8.76,8.73h25.8v39.63Zm47.25-50.26a3.93,3.93,0,0,1-3.94,3.91H133.26a3.93,3.93,0,0,1-3.94-3.91V11.88A3.93,3.93,0,0,1,133.26,8h20.89a4,4,0,0,1,3.33,1.8l6.78,10.69a8.18,8.18,0,0,0,6.88,3.8H190A2.11,2.11,0,1,0,190,20H171.14a3.94,3.94,0,0,1-3.31-1.83l-4.25-6.7h31.35a1.34,1.34,0,0,1,1.34,1.34v9.3a2.11,2.11,0,0,0,2.11,2.11h1.53a3.93,3.93,0,0,1,3.94,3.91V63.24Z" fill="#60bfdb"/><path d="M184.54,55.79h7a2.27,2.27,0,0,0,0-4.54h-7a2.27,2.27,0,0,0,0,4.54Z" fill="#60bfdb"/><path d="M199.66,58.87H184.54a2.27,2.27,0,0,0,0,4.54h15.12a2.27,2.27,0,0,0,0-4.54Z" fill="#60bfdb"/><path d="M65.47,155.47a3.79,3.79,0,1,0-3.8-3.76,3.79,3.79,0,0,0,3.8,3.76Z" fill="#60bfdb"/><path d="M65.6,173.12a3.79,3.79,0,1,0,3.81,3.76A3.78,3.78,0,0,0,65.6,173.12Z" fill="#60bfdb"/></g></g></svg>