<svg xmlns="http://www.w3.org/2000/svg" viewBox="0 0 173.94 208.42"><g id="Layer_2" data-name="Layer 2"><g id="Layer_1-2" data-name="Layer 1"><ellipse cx="60.6" cy="186.2" rx="9.23" ry="9.22" fill="#60bfdb"/><path d="M72,19.2H53.34a3.26,3.26,0,0,0,0,6.52H72a3.26,3.26,0,1,0,0-6.52Z" fill="#60bfdb"/><path d="M173.93,84.89a31.15,31.15,0,0,0-9.19-22.19h0a31.38,31.38,0,0,0-39.37-4.07V30.43A30.44,30.44,0,0,0,94.94,0H30.43A30.44,30.44,0,0,0,0,30.43V178a30.44,30.44,0,0,0,30.43,30.43H94.94A30.44,30.44,0,0,0,125.37,178V146.46l39.38-39.38a31.15,31.15,0,0,0,9.19-22.18ZM12.3,30.55A17.66,17.66,0,0,1,30,12.89H95.43a17.66,17.66,0,0,1,17.66,17.66v2.16H12.3ZM113.11,180a17.67,17.67,0,0,1-17.67,17.67H29.93A17.68,17.68,0,0,1,12.26,180v-5.16l100.84-.45V180ZM11.92,161.17V44.3H113.47V63.89l-1.19-1.19a31.37,31.37,0,0,0-46.06,42.52H58.28a2.68,2.68,0,1,0,0,5.35H71.43l42.05,42.05v8.09l-101.55.45Zm104.41-13.24L79,110.59h8.17a6.85,6.85,0,0,0,5-2.43l3.27,11a3.31,3.31,0,0,0,6.42.41L109,103.24l8.48,28.26a3.43,3.43,0,0,0,3,2.73h.17a3.49,3.49,0,0,0,3.21-2.32l9.46-21a1,1,0,0,1,.46-.3h11.46a2.68,2.68,0,1,0,0-5.35H133.83a6.11,6.11,0,0,0-5.32,3.45l-7.37,16.37-8.5-28.33a3.31,3.31,0,0,0-6.42-.4L99,112.59l-2.76-9.21a3.65,3.65,0,0,0-2.94-2.76,3.61,3.61,0,0,0-3.47,1.74l-1.8,2.28-.08.12a1.73,1.73,0,0,1-.85.48H73.61l-1.94-1.94a26,26,0,0,1,36.8-36.8l7.84,7.84,7.84-7.84A26,26,0,0,1,161,103.3h0l-44.64,44.64Z" fill="#60bfdb"/></g></g></svg>