<svg xmlns="http://www.w3.org/2000/svg" viewBox="0 0 167.84 214.97"><g id="Layer_2" data-name="Layer 2"><g id="Layer_1-2" data-name="Layer 1"><path d="M83.92,0h0A84.16,84.16,0,0,0,0,83.92c0,43.76,69.53,119.89,77.33,128.27a9.25,9.25,0,0,0,12.58.6l.6-.6c7.79-8.39,77.33-84.51,77.33-128.27A84.16,84.16,0,0,0,83.92,0Zm.29,13.67a70.25,70.25,0,0,1,70.46,70.46c0,10.29-5.31,23.87-13.3,38.41-3.74-7.65-10.61-13-19.77-16.08a21,21,0,1,0-22.6,0,36.93,36.93,0,0,0-6.38,2.85A40,40,0,0,0,73.87,96.05a23.38,23.38,0,1,0-25.14,0,40.07,40.07,0,0,0-24,22.1c-6.66-12.87-10.95-24.77-10.95-34A70.25,70.25,0,0,1,84.21,13.68Zm26.09,89.78A14.71,14.71,0,1,1,125,88.74,14.72,14.72,0,0,1,110.3,103.45ZM61.3,92.7A16.36,16.36,0,1,1,77.66,76.34,16.37,16.37,0,0,1,61.3,92.7Zm22.91,108c-15.54-17.54-39-46.72-54.54-73.53,2.77-15.24,15.13-25.58,31.63-25.58,10.81,0,19.84,4.44,25.56,11.8a35.7,35.7,0,0,0-12.37,27,3.53,3.53,0,0,0,6.71.73,2.65,2.65,0,0,0,.12-.73c0-8.86,3.32-16.39,8.92-21.55h0a26.27,26.27,0,0,1,2.73-2.2l.2-.14c.42-.29.86-.57,1.3-.84l.17-.11c.51-.3,1-.59,1.55-.86a30.67,30.67,0,0,1,14.09-3.26c13,0,23.08,7.11,27.09,18-15.51,26.16-38.08,54.18-53.18,71.21Z" fill="#60bfdb"/></g></g></svg>