<svg xmlns="http://www.w3.org/2000/svg" viewBox="0 0 211.33 213.98"><g id="Layer_2" data-name="Layer 2"><g id="Layer_1-2" data-name="Layer 1"><path d="M203.44,64.79,112,1.52a8.39,8.39,0,0,0-9.64,0L10.93,64.79c-7.16,4.94-3.78,16.53,4.82,16.53H198.61c8.6,0,12-11.59,4.82-16.53Zm-13.8,4.55c-.29.94-.85.94-1.09.94H25.82c-.24,0-.79,0-1.09-.94a1.51,1.51,0,0,1,.53-1.8l81.37-56.32a1,1,0,0,1,.55-.18,1,1,0,0,1,.55.18l81.36,56.31a1.51,1.51,0,0,1,.53,1.8ZM106.34,25A19.61,19.61,0,1,0,126,44.59,19.6,19.6,0,0,0,106.34,25Zm0,33.16A13.55,13.55,0,1,1,119.89,44.6,13.54,13.54,0,0,1,106.34,58.14Z" fill="#60bfdb"/><path d="M204.2,199.71H7.13a7.14,7.14,0,0,0,0,14.27H204.2a7.14,7.14,0,0,0,0-14.27Z" fill="#60bfdb"/><path d="M13.36,194.87H197.27a4.06,4.06,0,0,0,0-8.11H13.36a4.06,4.06,0,1,0,0,8.11Z" fill="#60bfdb"/><path d="M125.24,165H125V105.29h.28a7.64,7.64,0,0,0,0-15.28H88.32a7.64,7.64,0,1,0,0,15.28h.26V165h-.26a7.64,7.64,0,1,0,0,15.28h36.92a7.64,7.64,0,0,0,0-15.28Zm-14.34,8.17h-8.26a4.57,4.57,0,0,1-4.57-4.58V101.71a4.57,4.57,0,0,1,4.57-4.57h8.26a4.57,4.57,0,0,1,4.57,4.57v66.86A4.58,4.58,0,0,1,110.9,173.15Z" fill="#60bfdb"/><path d="M61.07,165h-.28V105.29h.28a7.64,7.64,0,0,0,0-15.28H24.15a7.64,7.64,0,1,0,0,15.28h.26V165h-.26a7.64,7.64,0,1,0,0,15.28H61.07a7.64,7.64,0,0,0,0-15.28Zm-14.34,8.17H38.47a4.57,4.57,0,0,1-4.57-4.58V101.71a4.57,4.57,0,0,1,4.57-4.57h8.26a4.57,4.57,0,0,1,4.57,4.57v66.86A4.58,4.58,0,0,1,46.73,173.15Z" fill="#60bfdb"/><path d="M189.42,165h-.28V105.29h.28a7.64,7.64,0,0,0,0-15.28H152.5a7.64,7.64,0,1,0,0,15.28h.26V165h-.26a7.64,7.64,0,1,0,0,15.28h36.92a7.64,7.64,0,0,0,0-15.28Zm-14.34,8.17h-8.26a4.57,4.57,0,0,1-4.57-4.58V101.71a4.57,4.57,0,0,1,4.57-4.57h8.26a4.57,4.57,0,0,1,4.57,4.57v66.86A4.58,4.58,0,0,1,175.08,173.15Z" fill="#60bfdb"/></g></g></svg>