<svg xmlns="http://www.w3.org/2000/svg" viewBox="0 0 578.11 250.65" width="164" height="72">
  <g id="Layer_2" data-name="Layer 2">
    <g id="a">
      <path d="M168.6,94.35q0-41.68,0-83.37c0-1.8.43-2.31,2.27-2.29q15.88.13,31.77,0c1.73,0,2.19.4,2.19,2.17-.06,25.54,0,51.08-.08,76.62,0,1.81.45,2.3,2.28,2.29q24.81-.1,49.63,0c1.61,0,2.13-.36,2.12-2.06-.08-10.59,0-21.17-.08-31.76,0-1.66.49-2.18,2.09-2.18q16.28.06,32.56,0c1.7,0,1.53.93,1.53,2V100q0,38.71,0,77.42c0,1.84-.34,2.47-2.34,2.45-10.52-.11-21-.09-31.57,0-1.78,0-2.33-.4-2.32-2.27.08-16.54,0-33.08.09-49.63,0-1.76-.46-2.19-2.2-2.19q-24.81.1-49.63,0c-1.7,0-2.22.36-2.21,2.15.08,16.61,0,33.22.08,49.83,0,1.62-.38,2.11-2.06,2.1q-16-.12-32,0c-1.74,0-2.2-.41-2.19-2.18q.09-41.69,0-83.37Z" style="fill: #367aba"/>
      <path d="M566.22,154.72a70.43,70.43,0,0,1-24.42,22.22c-22,12-50,10.45-70.74-3.53a68.86,68.86,0,0,1-26.7-34.9A64.77,64.77,0,0,1,441.57,126a134.53,134.53,0,0,1-.64-16.8Q441,82.59,441,56c0-1.76.37-2.36,2.27-2.35q15.88.15,31.77,0c3.45,0,2.27,5.48,2.25,7.76q-.06,7.56-.13,15.11-.13,14.88-.26,29.75c-.06,7.32-.1,14.83,2.38,21.72,6.86,19.1,30.84,26.8,47.79,15.84,10.42-6.74,14.79-18.09,14.78-30,0-15.53.08-31.08,0-46.61,0-3.77,0-7.53,0-11.3,0-1.73.41-2.24,2.19-2.22q15.88.13,31.77,0c1.66,0,2.27.3,2.27,2.14-.06,17.56.1,35.13,0,52.69,0,8.08-.19,16.25-1.9,24.17a63.52,63.52,0,0,1-9.94,22Z" style="fill: #8c705f"/>
      <path d="M151.9,61.5c2.29,1.85,4.54,3.74,6.88,5.53,1.26,1,1,1.75-.14,2.76-2.47,2.26-4.75,4.73-7,7.21C147,82.16,142,87,137.2,92c-1.93,2-7.69-1.93-9.86-3.52a9.68,9.68,0,0,0-1.92-1.11C115.11,83,105.65,83.64,95.94,88.7a13.83,13.83,0,0,0-2.41,1.58l-.42.29a30.84,30.84,0,0,0-12.58,19.09,31.17,31.17,0,0,0,5,25.65A32.57,32.57,0,0,0,114,149c6.58-.31,12.28-2.87,17.46-6.76.11-.08.19-.19.29-.27,3.73-2.95,3.64-2.76,6.84.7,4.09,4.42,8.19,8.85,12.5,13.08,2.89,2.84,5.46,6.06,8.36,9,.9.9.16,1.4-.4,1.94A75.15,75.15,0,0,1,146.37,176c-6.8,4.15-14.25,6.48-21.94,8.15-2.41.52-4.91.62-7.37.94a60.32,60.32,0,0,1-15.07-.4,62.05,62.05,0,0,1-13.4-3.42,67.11,67.11,0,0,1-31.71-23.75,65.7,65.7,0,0,1-8.37-14.74,65,65,0,0,1-4.25-16.34A81.66,81.66,0,0,1,44,108a62.73,62.73,0,0,1,7.2-23,68.37,68.37,0,0,1,23-25.5,94,94,0,0,1,13.28-6.89c.51-.18,5-1.77,6.11-2A86.79,86.79,0,0,1,103,49.22c3-.27,6.4-.51,9.56-.48,6.86.37,13.66,1,20.27,3.08,6.8,2.15,12.84,5.67,18.77,9.49l.29.21Z" style="fill: #237e9a"/>
      <path d="M304.14,116.81c0-11,0-22,0-32.94,0-9.32.13-18.65.11-28,0-1.55.41-2,2-2q16,0,31.94-.15c1.64,0,2.12.44,2.12,2.1q0,60.81.15,121.62c0,1.89-.5,2.47-2.43,2.45q-16-.14-31.95,0c-1.56,0-2-.4-2-2q.07-30.55,0-61.11Z" style="fill: #5f7986"/>
      <path d="M322.13.05c11.52-.87,22.64,9.87,21.7,23a21.75,21.75,0,0,1-43.4-2.79C300.88,9.89,310.25-.66,322.14.06Z" style="fill: #5f7986"/>
      <path d="M151.91,61.5l-.42-.29Z" style="fill: #fcfefe"/>
      <path d="M93.11,90.57l.42-.29Z" style="fill: #f9fdfe"/>
      <path d="M442.41,51.88V7.2h-5c-33.73,0-62.89,36.34-62.89,84.16v51.37c0,23.41-15.25,41.09-34.28,37.83l-.47.39v44.68h4.9c33.76,0,63-36.45,63-84.41V90.79c0-21.93,12.91-38.92,29.79-38.92h5Z" style="fill: #448349"/>
      <path d="M240.09,203a8,8,0,0,1-2.93-.53,6.91,6.91,0,0,1-3.86-3.74,7.48,7.48,0,0,1,0-5.68,6.91,6.91,0,0,1,1.55-2.25,7,7,0,0,1,2.33-1.49,8,8,0,0,1,2.93-.53,7.85,7.85,0,0,1,3,.55,5.91,5.91,0,0,1,2.31,1.62l-1.29,1.25a5.12,5.12,0,0,0-1.79-1.24,5.56,5.56,0,0,0-2.12-.41,5.81,5.81,0,0,0-2.17.4,5.4,5.4,0,0,0-1.74,1.11,4.89,4.89,0,0,0-1.14,1.7,5.74,5.74,0,0,0,0,4.26,5,5,0,0,0,2.88,2.81,5.74,5.74,0,0,0,2.17.4,5.27,5.27,0,0,0,2.12-.41,5.18,5.18,0,0,0,1.79-1.26l1.29,1.25a6.19,6.19,0,0,1-2.31,1.63,7.84,7.84,0,0,1-3,.56Z" style="fill: #737375"/>
      <path d="M254.2,203a7.93,7.93,0,0,1-2.95-.54,7.06,7.06,0,0,1-2.35-1.5,6.91,6.91,0,0,1-1.55-2.25,7.38,7.38,0,0,1,0-5.64,6.91,6.91,0,0,1,1.55-2.25,7.12,7.12,0,0,1,2.34-1.5,7.91,7.91,0,0,1,3-.54,8,8,0,0,1,2.94.53,6.84,6.84,0,0,1,3.88,3.75,7.32,7.32,0,0,1,.55,2.83,7.16,7.16,0,0,1-.55,2.84,6.73,6.73,0,0,1-1.54,2.25,6.94,6.94,0,0,1-2.34,1.49,8,8,0,0,1-2.94.53Zm0-1.77a5.56,5.56,0,0,0,2.15-.4A5.34,5.34,0,0,0,258,199.7a5.21,5.21,0,0,0,1.13-1.7,5.5,5.5,0,0,0,.41-2.13,5.36,5.36,0,0,0-.41-2.11,5.43,5.43,0,0,0-1.13-1.7,4.86,4.86,0,0,0-1.71-1.13,5.79,5.79,0,0,0-2.15-.4,5.46,5.46,0,0,0-2.13.4,5.18,5.18,0,0,0-2.86,2.83,5.4,5.4,0,0,0-.41,2.11,5.54,5.54,0,0,0,.41,2.13,5.19,5.19,0,0,0,1.14,1.7,5.12,5.12,0,0,0,1.72,1.12A5.76,5.76,0,0,0,254.18,201.22Z" style="fill: #737375"/>
      <path d="M270.37,203a5.81,5.81,0,0,1-4.31-1.57,6.2,6.2,0,0,1-1.57-4.59v-7.9h2v7.82a4.82,4.82,0,0,0,1,3.4,3.79,3.79,0,0,0,2.89,1.07,3.87,3.87,0,0,0,2.91-1.07,4.8,4.8,0,0,0,1-3.4v-7.82h1.93v7.9a6.25,6.25,0,0,1-1.56,4.59,5.8,5.8,0,0,1-4.32,1.57Z" style="fill: #737375"/>
      <path d="M280.32,202.83v-13.9H282l9.19,11.42h-.85V188.93h2v13.9h-1.63l-9.19-11.42h.85v11.42Z" style="fill: #737375"/>
      <path d="M299.2,202.83V190.66h-4.77v-1.73h11.5v1.73h-4.77v12.17h-2Z" style="fill: #737375"/>
      <path d="M308.1,202.83v-13.9h5.42a7.52,7.52,0,0,1,3.12.58,4.43,4.43,0,0,1,2,1.67,4.78,4.78,0,0,1,.69,2.6,4.72,4.72,0,0,1-.69,2.59,4.48,4.48,0,0,1-2,1.66,7.52,7.52,0,0,1-3.12.58h-4.33l.89-.91v5.14h-2Zm2-4.94-.89-1h4.27a4.41,4.41,0,0,0,2.89-.82,3.2,3.2,0,0,0,0-4.61,4.45,4.45,0,0,0-2.89-.81H309.2l.89-1v8.2Zm7.31,4.94-3.53-5H316l3.57,5Z" style="fill: #737375"/>
      <path d="M325.69,202.83v-5.32l.46,1.23-6-9.81h2.12l5,8.28h-1.15l5-8.28h2l-6,9.81.44-1.23v5.32h-2Z" style="fill: #737375"/>
      <path d="M2,226.66H0v-13.9H2Zm8.16-6.2H1.79v-1.73h8.36Zm-.18-7.7h2v13.9H10Z" style="fill: #737375"/>
      <path d="M18.12,224.93h8.1v1.73H16.13v-13.9h9.81v1.73H18.12v10.45Zm-.18-6.18h7.15v1.69H17.94Z" style="fill: #737375"/>
      <path d="M27.33,226.66l6.3-13.9h2l6.31,13.9H39.83l-5.62-12.79H35l-5.62,12.79ZM30,223.18l.54-1.59h7.82l.58,1.59Z" style="fill: #737375"/>
      <path d="M44,226.66v-13.9h2v12.17h7.53v1.73H44Z" style="fill: #737375"/>
      <path d="M57.24,226.66V214.49H52.47v-1.73H64v1.73H59.2v12.17h-2Z" style="fill: #737375"/>
      <path d="M68.12,226.66h-2v-13.9h2Zm8.16-6.2H67.92v-1.73h8.36Zm-.18-7.7h2v13.9h-2Z" style="fill: #737375"/>
      <path d="M87.6,226.66v-13.9h2v13.9Z" style="fill: #737375"/>
      <path d="M93.76,226.66v-13.9h1.63l9.19,11.42h-.85V212.76h2v13.9h-1.63L94.9,215.24h.85v11.42Z" style="fill: #737375"/>
      <path d="M111.87,226.66h-2v-13.9h9.81v1.73h-7.82Zm-.2-7.33h7.17V221h-7.17Z" style="fill: #737375"/>
      <path d="M128.61,226.82a7.93,7.93,0,0,1-3-.54,7.06,7.06,0,0,1-2.35-1.5,6.91,6.91,0,0,1-1.55-2.25,7.38,7.38,0,0,1,0-5.64,6.91,6.91,0,0,1,1.55-2.25,7.12,7.12,0,0,1,2.34-1.5,7.91,7.91,0,0,1,3-.54,8,8,0,0,1,2.94.53,6.84,6.84,0,0,1,3.88,3.75,7.32,7.32,0,0,1,.55,2.83,7.16,7.16,0,0,1-.55,2.84,6.73,6.73,0,0,1-1.54,2.25,6.94,6.94,0,0,1-2.34,1.49A8,8,0,0,1,128.61,226.82Zm0-1.77a5.56,5.56,0,0,0,2.15-.4,5.34,5.34,0,0,0,1.71-1.12,5.21,5.21,0,0,0,1.13-1.7,5.5,5.5,0,0,0,.41-2.13,5.36,5.36,0,0,0-.41-2.11,5.43,5.43,0,0,0-1.13-1.7,4.86,4.86,0,0,0-1.71-1.13,5.79,5.79,0,0,0-2.15-.4,5.46,5.46,0,0,0-2.13.4,5.18,5.18,0,0,0-2.86,2.83,5.4,5.4,0,0,0-.41,2.11,5.54,5.54,0,0,0,.41,2.13,5.19,5.19,0,0,0,1.14,1.7,5.12,5.12,0,0,0,1.72,1.12A5.76,5.76,0,0,0,128.59,225.05Z" style="fill: #737375"/>
      <path d="M139,226.66v-13.9h5.42a7.52,7.52,0,0,1,3.12.58,4.43,4.43,0,0,1,2,1.67,4.78,4.78,0,0,1,.69,2.6,4.72,4.72,0,0,1-.69,2.59,4.48,4.48,0,0,1-2,1.66,7.52,7.52,0,0,1-3.12.58H140.1l.89-.91v5.14h-2Zm2-4.94-.89-1h4.27a4.41,4.41,0,0,0,2.89-.82,3.2,3.2,0,0,0,0-4.61,4.45,4.45,0,0,0-2.89-.81h-4.27l.89-1v8.2Zm7.31,4.94-3.53-5h2.12l3.57,5Z" style="fill: #737375"/>
      <path d="M153.45,226.66v-13.9h1.63l6.24,10.5h-.87l6.16-10.5h1.63l0,13.9h-1.91l0-10.9h.46L161.31,225h-.91l-5.52-9.21h.5v10.9h-1.93Z" style="fill: #737375"/>
      <path d="M170.31,226.66l6.3-13.9h2l6.31,13.9h-2.08l-5.62-12.79H178l-5.62,12.79Zm2.68-3.48.54-1.59h7.82l.58,1.59Z" style="fill: #737375"/>
      <path d="M189,226.66V214.49h-4.77v-1.73h11.5v1.73H191v12.17h-2Z" style="fill: #737375"/>
      <path d="M197.91,226.66v-13.9h2v13.9Z" style="fill: #737375"/>
      <path d="M210.34,226.82a7.93,7.93,0,0,1-3-.54,7.06,7.06,0,0,1-2.35-1.5,6.91,6.91,0,0,1-1.55-2.25,7.38,7.38,0,0,1,0-5.64,6.91,6.91,0,0,1,1.55-2.25,7.12,7.12,0,0,1,2.34-1.5,7.91,7.91,0,0,1,3-.54,8,8,0,0,1,2.94.53,6.84,6.84,0,0,1,3.88,3.75,7.32,7.32,0,0,1,.55,2.83,7.16,7.16,0,0,1-.55,2.84,6.73,6.73,0,0,1-1.54,2.25,6.94,6.94,0,0,1-2.34,1.49A8,8,0,0,1,210.34,226.82Zm0-1.77a5.56,5.56,0,0,0,2.15-.4,5.34,5.34,0,0,0,1.71-1.12,5.21,5.21,0,0,0,1.13-1.7,5.5,5.5,0,0,0,.41-2.13,5.36,5.36,0,0,0-.41-2.11,5.43,5.43,0,0,0-1.13-1.7,4.86,4.86,0,0,0-1.71-1.13,5.79,5.79,0,0,0-2.15-.4,5.46,5.46,0,0,0-2.13.4,5.18,5.18,0,0,0-2.86,2.83,5.4,5.4,0,0,0-.41,2.11,5.54,5.54,0,0,0,.41,2.13,5.19,5.19,0,0,0,1.14,1.7,5.12,5.12,0,0,0,1.72,1.12A5.76,5.76,0,0,0,210.32,225.05Z" style="fill: #737375"/>
      <path d="M220.75,226.66v-13.9h1.63l9.19,11.42h-.85V212.76h2v13.9h-1.63l-9.19-11.42h.85v11.42Z" style="fill: #737375"/>
      <path d="M246.26,226.82a9.36,9.36,0,0,1-3-.49,6,6,0,0,1-2.28-1.26l.73-1.55a6.35,6.35,0,0,0,2,1.15,7.39,7.39,0,0,0,2.56.46,5.71,5.71,0,0,0,2-.28,2.35,2.35,0,0,0,1.11-.77,1.79,1.79,0,0,0,.36-1.1,1.5,1.5,0,0,0-.47-1.15,3.39,3.39,0,0,0-1.21-.7,14.69,14.69,0,0,0-1.64-.47c-.6-.13-1.19-.29-1.8-.47a8.17,8.17,0,0,1-1.65-.69,3.12,3.12,0,0,1-1.66-2.94,3.6,3.6,0,0,1,.57-2,3.93,3.93,0,0,1,1.75-1.45,7.26,7.26,0,0,1,3-.55,9.31,9.31,0,0,1,2.4.32,6.87,6.87,0,0,1,2.07.91l-.66,1.59a6.07,6.07,0,0,0-1.89-.86,7.3,7.3,0,0,0-1.93-.27,5.32,5.32,0,0,0-1.93.3,2.36,2.36,0,0,0-1.1.79,1.9,1.9,0,0,0-.35,1.11,1.53,1.53,0,0,0,.47,1.17,3.37,3.37,0,0,0,1.21.69c.5.17,1,.33,1.64.47s1.19.29,1.8.47A7.62,7.62,0,0,1,250,220a3.37,3.37,0,0,1,1.2,1.11,3.23,3.23,0,0,1,.46,1.79,3.49,3.49,0,0,1-.58,2,4,4,0,0,1-1.78,1.45,7.39,7.39,0,0,1-3,.55Z" style="fill: #737375"/>
      <path d="M257.6,226.66v-5.32l.46,1.23-6-9.81h2.12l5,8.28h-1.15l5-8.28h2l-6,9.81.44-1.23v5.32h-2Z" style="fill: #737375"/>
      <path d="M270.85,226.82a9.36,9.36,0,0,1-3-.49,6,6,0,0,1-2.28-1.26l.73-1.55a6.35,6.35,0,0,0,2,1.15,7.39,7.39,0,0,0,2.56.46,5.71,5.71,0,0,0,2-.28,2.35,2.35,0,0,0,1.11-.77,1.79,1.79,0,0,0,.36-1.1,1.5,1.5,0,0,0-.47-1.15,3.39,3.39,0,0,0-1.21-.7,14.69,14.69,0,0,0-1.64-.47c-.6-.13-1.19-.29-1.8-.47a8.17,8.17,0,0,1-1.65-.69,3.12,3.12,0,0,1-1.66-2.94,3.6,3.6,0,0,1,.57-2,3.93,3.93,0,0,1,1.75-1.45,7.26,7.26,0,0,1,3-.55,9.31,9.31,0,0,1,2.4.32,6.87,6.87,0,0,1,2.07.91L275,215.4a6.07,6.07,0,0,0-1.89-.86,7.3,7.3,0,0,0-1.93-.27,5.32,5.32,0,0,0-1.93.3,2.36,2.36,0,0,0-1.1.79,1.9,1.9,0,0,0-.35,1.11,1.53,1.53,0,0,0,.47,1.17,3.37,3.37,0,0,0,1.21.69c.5.17,1,.33,1.64.47s1.19.29,1.8.47a7.62,7.62,0,0,1,1.65.68,3.37,3.37,0,0,1,1.2,1.11,3.23,3.23,0,0,1,.46,1.79,3.49,3.49,0,0,1-.58,2,4,4,0,0,1-1.78,1.45,7.39,7.39,0,0,1-3,.55Z" style="fill: #737375"/>
      <path d="M281.69,226.66V214.49h-4.77v-1.73h11.5v1.73h-4.77v12.17h-2Z" style="fill: #737375"/>
      <path d="M292.57,224.93h8.1v1.73H290.58v-13.9h9.81v1.73h-7.82v10.45Zm-.18-6.18h7.15v1.69h-7.15Z" style="fill: #737375"/>
      <path d="M303.89,226.66v-13.9h1.63l6.24,10.5h-.87l6.16-10.5h1.63l0,13.9h-1.91l0-10.9h.46L311.75,225h-.91l-5.52-9.21h.5v10.9h-1.93Z" style="fill: #737375"/>
      <path d="M326.91,226.82a9.36,9.36,0,0,1-3-.49,6,6,0,0,1-2.28-1.26l.73-1.55a6.35,6.35,0,0,0,2,1.15,7.39,7.39,0,0,0,2.56.46,5.71,5.71,0,0,0,2-.28,2.35,2.35,0,0,0,1.11-.77,1.79,1.79,0,0,0,.36-1.1,1.5,1.5,0,0,0-.47-1.15,3.39,3.39,0,0,0-1.21-.7,14.69,14.69,0,0,0-1.64-.47c-.6-.13-1.19-.29-1.8-.47a8.17,8.17,0,0,1-1.65-.69,3.12,3.12,0,0,1-1.66-2.94,3.6,3.6,0,0,1,.57-2,3.93,3.93,0,0,1,1.75-1.45,7.26,7.26,0,0,1,3-.55,9.31,9.31,0,0,1,2.4.32,6.87,6.87,0,0,1,2.07.91l-.66,1.59a6.07,6.07,0,0,0-1.89-.86,7.3,7.3,0,0,0-1.93-.27,5.32,5.32,0,0,0-1.93.3,2.36,2.36,0,0,0-1.1.79,1.9,1.9,0,0,0-.35,1.11,1.53,1.53,0,0,0,.47,1.17,3.37,3.37,0,0,0,1.21.69c.5.17,1,.33,1.64.47s1.19.29,1.8.47a7.62,7.62,0,0,1,1.65.68,3.37,3.37,0,0,1,1.2,1.11,3.23,3.23,0,0,1,.46,1.79,3.49,3.49,0,0,1-.58,2,4,4,0,0,1-1.78,1.45,7.39,7.39,0,0,1-3,.55Z" style="fill: #737375"/>
      <path d="M178.45,250.49l6.3-13.9h2l6.31,13.9H191l-5.62-12.79h.79l-5.62,12.79Zm2.68-3.48.54-1.59h7.82l.58,1.59Z" style="fill: #737375"/>
      <path d="M195.09,250.49v-13.9h1.63L205.91,248h-.85V236.59h2v13.9h-1.63l-9.19-11.42h.85v11.42Z" style="fill: #737375"/>
      <path d="M211.21,250.49v-13.9h5.86a8.48,8.48,0,0,1,3.92.87,6.49,6.49,0,0,1,2.64,2.44,7.48,7.48,0,0,1,0,7.26A6.42,6.42,0,0,1,221,249.6a8.48,8.48,0,0,1-3.92.87h-5.86Zm2-1.73H217a6.37,6.37,0,0,0,3-.66,4.83,4.83,0,0,0,2-1.84,5.33,5.33,0,0,0,.7-2.73,5.25,5.25,0,0,0-.7-2.74,4.81,4.81,0,0,0-2-1.83,6.37,6.37,0,0,0-3-.66H213.2v10.45Z" style="fill: #737375"/>
      <path d="M233,250.49v-13.9h5.86a8.48,8.48,0,0,1,3.92.87,6.49,6.49,0,0,1,2.64,2.44,7.48,7.48,0,0,1,0,7.26,6.42,6.42,0,0,1-2.64,2.44,8.48,8.48,0,0,1-3.92.87H233Zm2-1.73h3.75a6.37,6.37,0,0,0,3-.66,4.83,4.83,0,0,0,2-1.84,5.33,5.33,0,0,0,.7-2.73,5.25,5.25,0,0,0-.7-2.74,4.81,4.81,0,0,0-2-1.83,6.37,6.37,0,0,0-3-.66H235v10.45Z" style="fill: #737375"/>
      <path d="M247.05,250.49l6.3-13.9h2l6.31,13.9h-2.08l-5.62-12.79h.79l-5.62,12.79Zm2.68-3.48.54-1.59h7.82l.58,1.59Z" style="fill: #737375"/>
      <path d="M265.76,250.49V238.32H261v-1.73h11.5v1.73h-4.77v12.17h-2Z" style="fill: #737375"/>
      <path d="M271.86,250.49l6.3-13.9h2l6.31,13.9h-2.08l-5.62-12.79h.79l-5.62,12.79Zm2.68-3.48.54-1.59h7.82l.58,1.59Z" style="fill: #737375"/>
      <path d="M299.6,250.65a5.81,5.81,0,0,1-4.31-1.57,6.2,6.2,0,0,1-1.57-4.59v-7.9h2v7.82a4.82,4.82,0,0,0,1,3.4,3.79,3.79,0,0,0,2.89,1.07,3.87,3.87,0,0,0,2.91-1.07,4.8,4.8,0,0,0,1-3.4v-7.82h1.93v7.9a6.25,6.25,0,0,1-1.56,4.59,5.8,5.8,0,0,1-4.32,1.57Z" style="fill: #737375"/>
      <path d="M313.6,250.65a9.36,9.36,0,0,1-3-.49,6,6,0,0,1-2.28-1.26l.73-1.55a6.35,6.35,0,0,0,2,1.15,7.39,7.39,0,0,0,2.56.46,5.71,5.71,0,0,0,2-.28,2.35,2.35,0,0,0,1.11-.77,1.79,1.79,0,0,0,.36-1.1,1.5,1.5,0,0,0-.47-1.15,3.39,3.39,0,0,0-1.21-.7,14.69,14.69,0,0,0-1.64-.47c-.6-.13-1.19-.29-1.8-.47a8.17,8.17,0,0,1-1.65-.69,3.12,3.12,0,0,1-1.66-2.94,3.6,3.6,0,0,1,.57-2,3.93,3.93,0,0,1,1.75-1.45,7.26,7.26,0,0,1,3-.55,9.31,9.31,0,0,1,2.4.32,6.87,6.87,0,0,1,2.07.91l-.66,1.59a6.07,6.07,0,0,0-1.89-.86,7.3,7.3,0,0,0-1.93-.27,5.32,5.32,0,0,0-1.93.3,2.36,2.36,0,0,0-1.1.79,1.9,1.9,0,0,0-.35,1.11,1.53,1.53,0,0,0,.47,1.17,3.37,3.37,0,0,0,1.21.69c.5.17,1,.33,1.64.47s1.19.29,1.8.47a7.62,7.62,0,0,1,1.65.68,3.37,3.37,0,0,1,1.2,1.11,3.23,3.23,0,0,1,.46,1.79,3.49,3.49,0,0,1-.58,2,4,4,0,0,1-1.78,1.45,7.39,7.39,0,0,1-3,.55Z" style="fill: #737375"/>
      <path d="M323.86,248.76H332v1.73H321.87v-13.9h9.81v1.73h-7.82v10.45Zm-.18-6.18h7.15v1.69h-7.15Z" style="fill: #737375"/>
    </g>
  </g>
</svg>
